# xmcd
#
# Track frame offsets:
#	150
#	11855
#	26906
#	37848
#	56036
#	68915
#	81758
#	93820
#	102997
#	114607
#	127517
#	138187
#	149576
#	162004
#	173995
#	187571
#	196661
#	214728
#	227687
#	245869
#	261341
#	274264
#	293681
#
# Disc length: 4077 seconds
#
# Revision: 1
# Processed by: cddbd v1.5.2PL0 Copyright (c) Steve Scherf et al.
# Submitted via: audiograbber 1.83.01
#
DISCID=420feb17
DTITLE=Mr. President - Memphis
DYEAR=1900
DGENRE=Country
TTITLE0=Truckdriving man
TTITLE1=Hjul gi'r dig vinger
TTITLE2=En Truckers frie liv
TTITLE3=Flasken min ven
TTITLE4=Prøv med lidt Country
TTITLE5=Far's dansktoppotpouri
TTITLE6=Når jeg dør
TTITLE7=Den sidste Countrysanger
TTITLE8=Cafe' truckstop
TTITLE9=Hej smukke
TTITLE10=T-bone med bønner
TTITLE11=En tåre i mit glas
TTITLE12=Den jeg er
TTITLE13=Hillybilly Lilly
TTITLE14=Hold mig oppe
TTITLE15=Hello, Good-Morning
TTITLE16=Noget ved musikken
TTITLE17=En pige jeg ka' li'
TTITLE18=Min musik er Country
TTITLE19=Køre her og der
TTITLE20=Du gamle Diesel
TTITLE21=22
TTITLE22=23
EXTD=
EXTT0=
EXTT1=
EXTT2=
EXTT3=
EXTT4=
EXTT5=
EXTT6=
EXTT7=
EXTT8=
EXTT9=
EXTT10=
EXTT11=
EXTT12=
EXTT13=
EXTT14=
EXTT15=
EXTT16=
EXTT17=
EXTT18=
EXTT19=
EXTT20=
EXTT21=
EXTT22=
PLAYORDER=
